<svg width="31" height="31" viewBox="0 0 31 31" fill="none" xmlns="http://www.w3.org/2000/svg">
<circle cx="15.5" cy="15.5" r="15.5" fill="currentColor"/>
<g clip-path="url(#clip0_1_277)">
<path d="M22.6058 19.7247L19.2245 17.369C18.7481 17.0397 18.0512 17.1591 17.7205 17.6223L16.8423 18.8852C16.789 18.9612 16.7463 19.048 16.7179 19.1385C16.6041 19.2145 16.4014 19.3049 16.1028 19.3049C15.6121 19.3049 14.773 19.0516 13.5784 17.8358C11.5944 15.8166 11.5802 14.9301 11.8468 14.2498C11.9108 14.2208 11.9713 14.1847 12.0246 14.1412L13.237 13.2076C13.6993 12.853 13.7917 12.1619 13.4397 11.6661L11.0149 8.30447C10.5313 7.63141 9.93754 7.55542 9.31533 8.09821C8.93845 8.43112 8.31268 9.22358 8.05668 9.69762C7.91091 9.95816 7.84691 10.2295 7.8718 10.5009C6.73049 15.0459 10.1082 18.7983 11.1749 19.8477C14.0904 22.7173 16.7961 23.3035 18.5561 23.3035C19.5551 23.3035 20.2769 23.1225 20.5969 22.985C20.8458 22.9923 21.0982 22.9271 21.34 22.7788C21.8022 22.5001 22.5595 21.8416 22.8689 21.4471C23.1249 21.1251 23.228 20.8247 23.1818 20.528C23.1391 20.2277 22.9506 19.9635 22.6058 19.7247ZM22.3142 20.9984C22.0582 21.3241 21.3613 21.9356 20.9738 22.1672C20.8316 22.2541 20.6965 22.2903 20.5685 22.2758C20.4974 22.2686 20.4298 22.283 20.3658 22.3156C20.2165 22.3952 19.5658 22.6159 18.5525 22.6159C16.9241 22.6159 14.4104 22.0478 11.6655 19.3447C10.67 18.3605 7.49136 14.8215 8.57579 10.6204C8.58645 10.5733 8.59001 10.5227 8.5829 10.4756C8.56512 10.3381 8.59356 10.2006 8.67534 10.0522C8.89223 9.6542 9.46822 8.91962 9.77754 8.64823C9.9091 8.53244 10.03 8.4673 10.1118 8.4673C10.2255 8.4673 10.3571 8.61566 10.446 8.7387L12.8673 12.1004C12.9917 12.2777 12.9668 12.5165 12.8104 12.6359L11.5944 13.5731C11.5731 13.5912 11.5446 13.6021 11.502 13.6129C11.3953 13.6382 11.3064 13.7142 11.2637 13.8119C10.7482 14.9518 10.8726 16.1097 13.0806 18.3533C14.1757 19.4678 15.1961 20.0359 16.1063 20.0359C16.7179 20.0359 17.0983 19.779 17.2725 19.627C17.3365 19.5691 17.3792 19.4931 17.3899 19.4063C17.397 19.3665 17.4076 19.3339 17.4254 19.3086L18.3001 18.0457C18.4103 17.8901 18.6556 17.8539 18.8227 17.9697L22.204 20.3218C22.3711 20.4376 22.4671 20.5461 22.4778 20.6366C22.492 20.7198 22.4351 20.8501 22.3142 20.9984Z" fill="#424242" stroke="#100F0F" stroke-width="0.5"/>
</g>
<defs>
<clipPath id="clip0_1_277">
<rect width="16.0886" height="16.8734" fill="white" transform="translate(7.45581 7.06335)"/>
</clipPath>
</defs>
</svg>
